<svg height="128" width="128" xmlns="http://www.w3.org/2000/svg"><linearGradient id="d" gradientUnits="userSpaceOnUse" x1="36" x2="98" y1="112" y2="111.871"><stop offset="0" stop-color="#5e5c64"/><stop offset=".059" stop-color="#878491"/><stop offset=".144" stop-color="#5e5c64"/><stop offset=".849" stop-color="#5e5c64"/><stop offset=".94" stop-color="#6c6a73"/><stop offset="1" stop-color="#343338"/></linearGradient><clipPath id="A"><path d="M35 74h63v36H35zm0 0"/></clipPath><clipPath id="B"><path d="M49.781 74.367h34.387C91.808 74.367 98 80.562 98 88.2v7.969C98 103.808 91.809 110 84.168 110H49.781c-7.64 0-13.832-6.191-13.832-13.832v-7.969c0-7.636 6.192-13.832 13.832-13.832zm0 0"/></clipPath><linearGradient id="g" gradientUnits="userSpaceOnUse" x1="89" x2="87.649" y1="92" y2="103.491"><stop offset="0" stop-color="#454545"/><stop offset=".404" stop-color="#38353f"/><stop offset="1" stop-color="#77767b"/></linearGradient><clipPath id="C"><path d="M35 74h25v36H35zm0 0"/></clipPath><clipPath id="D"><path d="M49.781 74.367h34.387C91.808 74.367 98 80.562 98 88.2v7.969C98 103.808 91.809 110 84.168 110H49.781c-7.64 0-13.832-6.191-13.832-13.832v-7.969c0-7.636 6.192-13.832 13.832-13.832zm0 0"/></clipPath><linearGradient id="j" gradientUnits="userSpaceOnUse" x1="44" x2="48" y1="96" y2="88"><stop offset="0" stop-color="#77767b"/><stop offset="1" stop-color="#241f31"/></linearGradient><clipPath id="E"><path d="M44 77h46v33H44zm0 0"/></clipPath><clipPath id="F"><path d="M49.781 74.367h34.387C91.808 74.367 98 80.562 98 88.2v7.969C98 103.808 91.809 110 84.168 110H49.781c-7.64 0-13.832-6.191-13.832-13.832v-7.969c0-7.636 6.192-13.832 13.832-13.832zm0 0"/></clipPath><linearGradient id="m" gradientTransform="matrix(-.70833 0 0 1 117.667 -174.66)" gradientUnits="userSpaceOnUse" x1="74" x2="74" y1="266" y2="279"><stop offset="0" stop-color="#3d3846"/><stop offset="1" stop-color="#77767b"/></linearGradient><linearGradient id="n" gradientUnits="userSpaceOnUse" x1="24" x2="108" y1="89.382" y2="89.382"><stop offset="0" stop-color="#8b8893"/><stop offset=".014" stop-color="#bfbbce"/><stop offset=".037" stop-color="#888591"/><stop offset=".07" stop-color="#726f79"/><stop offset=".095" stop-color="#888591"/><stop offset=".143" stop-color="#b9b5c8"/><stop offset=".19" stop-color="#888591"/><stop offset=".849" stop-color="#898692"/><stop offset=".94" stop-color="#b9b5c5"/><stop offset="1" stop-color="#343338"/></linearGradient><linearGradient id="o" gradientTransform="matrix(1 0 0 .65598 0 -89.627)" gradientUnits="userSpaceOnUse" x1="18" x2="18" y1="224" y2="241.856"><stop offset="0" stop-color="#8b8893"/><stop offset=".431" stop-color="#bebacd"/><stop offset="1" stop-color="#8b8893"/></linearGradient><linearGradient id="p" gradientUnits="userSpaceOnUse" x1="25.671" x2="37.574" y1="31.657" y2="43.608"><stop offset="0" stop-color="#fff" stop-opacity=".467"/><stop offset="1" stop-color="#fff" stop-opacity="0"/></linearGradient><radialGradient id="q" cx="56" cy="243.89" gradientTransform="matrix(.9967 0 0 .73091 .185 -116.263)" gradientUnits="userSpaceOnUse" r="40.132"><stop offset="0" stop-color="#fff" stop-opacity=".467"/><stop offset="1" stop-color="#fff" stop-opacity=".106"/></radialGradient><radialGradient id="r" cx="57.5" cy="231" gradientTransform="matrix(1.2439 0 0 .70732 -14.024 -102.89)" gradientUnits="userSpaceOnUse" r="20.5"><stop offset="0" stop-color="#f9f06b"/><stop offset="1" stop-color="#f9f06b" stop-opacity="0"/></radialGradient><clipPath id="L"><path d="M54 30h66v17H54zm0 0"/></clipPath><clipPath id="M"><path d="M62 30.023h50a8 8 0 0 1 0 16H62a8 8 0 0 1 0-16zm0 0"/></clipPath><radialGradient id="u" cx="89" cy="182.901" gradientTransform="matrix(.87879 0 0 .24242 10.788 -14.34)" gradientUnits="userSpaceOnUse" r="33"><stop offset="0" stop-color="#ff9236"/><stop offset="1" stop-color="#b5835a"/></radialGradient><clipPath id="N"><path d="M54 34h66v13H54zm0 0"/></clipPath><clipPath id="O"><path d="M62 30.023h50a8 8 0 0 1 0 16H62a8 8 0 0 1 0-16zm0 0"/></clipPath><linearGradient id="x" gradientUnits="userSpaceOnUse" x1="96" x2="96" y1="40.024" y2="46.024"><stop offset="0" stop-color="#865e3c"/><stop offset="1" stop-color="#66462e"/></linearGradient><linearGradient id="y" gradientUnits="userSpaceOnUse" x1="42.495" x2="42.495" y1="30.024" y2="46.024"><stop offset="0" stop-color="#865e3c"/><stop offset=".286" stop-color="#b5835a"/><stop offset="1" stop-color="#66462e"/></linearGradient><linearGradient id="z" gradientUnits="userSpaceOnUse" x1="44.18" x2="73" y1="26.816" y2="26.816"><stop offset="0" stop-color="#9a9996"/><stop offset=".287" stop-color="#b8b7b4"/><stop offset=".791" stop-color="#9a9996"/><stop offset=".901" stop-color="#d4d3cf"/><stop offset="1" stop-color="#585855"/></linearGradient><clipPath id="e"><path d="M35 74h63v36H35zm0 0"/></clipPath><clipPath id="f"><path d="M49.781 74.367h34.387C91.808 74.367 98 80.562 98 88.2v7.969C98 103.808 91.809 110 84.168 110H49.781c-7.64 0-13.832-6.191-13.832-13.832v-7.969c0-7.636 6.192-13.832 13.832-13.832zm0 0"/></clipPath><clipPath id="h"><path d="M35 74h25v36H35zm0 0"/></clipPath><clipPath id="i"><path d="M49.781 74.367h34.387C91.808 74.367 98 80.562 98 88.2v7.969C98 103.808 91.809 110 84.168 110H49.781c-7.64 0-13.832-6.191-13.832-13.832v-7.969c0-7.636 6.192-13.832 13.832-13.832zm0 0"/></clipPath><clipPath id="k"><path d="M44 77h46v33H44zm0 0"/></clipPath><clipPath id="l"><path d="M49.781 74.367h34.387C91.808 74.367 98 80.562 98 88.2v7.969C98 103.808 91.809 110 84.168 110H49.781c-7.64 0-13.832-6.191-13.832-13.832v-7.969c0-7.636 6.192-13.832 13.832-13.832zm0 0"/></clipPath><clipPath id="s"><path d="M54 30h66v17H54zm0 0"/></clipPath><clipPath id="t"><path d="M62 30.023h50a8 8 0 0 1 0 16H62a8 8 0 0 1 0-16zm0 0"/></clipPath><clipPath id="v"><path d="M54 34h66v13H54zm0 0"/></clipPath><clipPath id="w"><path d="M62 30.023h50a8 8 0 0 1 0 16H62a8 8 0 0 1 0-16zm0 0"/></clipPath><clipPath id="c"><path d="M0 0h128v128H0z"/></clipPath><clipPath id="a"><path d="M0 0h128v128H0z"/></clipPath><filter id="b" height="1" width="1" x="0" y="0"><feColorMatrix in="SourceGraphic" values="0 0 0 0 1 0 0 0 0 1 0 0 0 0 1 0 0 0 1 0"/></filter><mask id="H"><g clip-path="url(#a)" filter="url(#b)"><g clip-path="url(#c)"><path d="M51.242 82.367h31.469C91.152 82.367 98 89.215 98 97.66v5.05c0 8.442-6.848 15.29-15.29 15.29H51.243c-8.445 0-15.293-6.848-15.293-15.29v-5.05c0-8.445 6.848-15.293 15.293-15.293zm0 0" fill="url(#d)" fill-rule="evenodd"/><g clip-path="url(#e)"><g clip-path="url(#f)"><path d="M47.95 74.367H86c6.629 0 12 5.375 12 12V98c0 6.629-5.371 12-12 12H47.95c-6.626 0-12-5.371-12-12V86.367c0-6.625 5.374-12 12-12zm0 0" fill="url(#g)" fill-rule="evenodd"/></g></g><g clip-path="url(#h)"><g clip-path="url(#i)"><path d="M26 72h22c6.629 0 12 5.371 12 12v16c0 6.629-5.371 12-12 12H26c-6.629 0-12-5.371-12-12V84c0-6.629 5.371-12 12-12zm0 0" fill="url(#j)" fill-rule="evenodd"/></g></g><g clip-path="url(#k)"><g clip-path="url(#l)"><path d="M89.332 109.34 78 77.34H55.332L44 109.34zm0 0" fill="url(#m)"/></g></g><path d="M8 60v-4h38v26H30C17.852 82 8 72.148 8 60zm0 0" fill="#8b8893" fill-rule="evenodd"/><path d="M42.969 46.46a10.995 10.995 0 0 0-11.02 11.02V72H24v11a3 3 0 0 0 3 3c9 0 2.578 10 15.969 10h54.015A10.994 10.994 0 0 0 108 84.98v-27.5c0-6.105-4.914-11.02-11.016-11.02zm0 0" fill="url(#n)" fill-rule="evenodd"/><path d="M8 56h38v15.742H30C19.578 73.472 9.727 66.422 8 56zm0 0" fill="url(#o)" fill-rule="evenodd"/><path d="M40.66 44a8.694 8.694 0 0 0-8.71 8.71v.368A2.922 2.922 0 0 1 29.026 56H24v14a2 2 0 0 0 2 2l3.094.004c1.578 0 2.797 1.328 3.34 2.797C33.617 78.02 36.844 80 40.66 80h58.63a8.694 8.694 0 0 0 8.71-8.71V52.71A8.694 8.694 0 0 0 99.29 44zm0 0" fill="#aeaab9" fill-rule="evenodd"/><path d="M37.633 40.738 24 28l-4 2 18.426 16.75zm0 0" fill="url(#p)"/><path d="M46.027 50A4.019 4.019 0 0 0 42 54.023v7.954A4.019 4.019 0 0 0 46.027 66h21.946A4.019 4.019 0 0 0 72 62h27.973c2.23 0 4.027-1.785 4.027-4s-1.797-4-4.027-4H72a4.019 4.019 0 0 0-4.027-4zm0 0" fill="#241f31" fill-opacity=".086" fill-rule="evenodd"/><path d="M64.602 68H53.148a46.993 46.993 0 0 1-21.109-5.008l-15.992-8.039v-3.906l19.652 9.805A1.593 1.593 0 0 0 38 59.426V59c0-1.281-.5-2.516-1.39-3.438l-4.583-4.722 1.118-3.113 6.71 5.312A1.324 1.324 0 0 0 42 52a4.52 4.52 0 0 0-1.48-3.343L20 30l4-2 18.793 17.559A23.899 23.899 0 0 0 59.117 52h.301a9.54 9.54 0 0 0 7.45-3.574l19.44-24.23 3.465 2L77.828 49.44a7.26 7.26 0 0 0 .203 7.004l1.047 1.774a3.123 3.123 0 0 0 3.817 1.328l20.132-7.781v3.87l-24.152 9.626A38.591 38.591 0 0 1 64.602 68zm0 0" fill="url(#q)"/><path d="M83 60.5C83 68.508 71.582 75 57.5 75S32 68.508 32 60.5 43.418 46 57.5 46 83 52.492 83 60.5zm0 0" fill="url(#r)" fill-rule="evenodd"/><path d="M86.258 24.195 73.063 40.707l7.167 2.313 9.293-16.38zm0 0" fill="#fff" fill-opacity=".482"/><g clip-path="url(#s)"><g clip-path="url(#t)"><path d="M54 30.023h66v16H54zm0 0" fill="url(#u)" fill-rule="evenodd"/></g></g><g clip-path="url(#v)"><g clip-path="url(#w)"><path d="M62 34.023h50a8 8 0 0 1 0 16H62a8 8 0 0 1 0-16zm0 0" fill="url(#x)" fill-rule="evenodd"/></g></g><path d="M42.344 30.023h13.804a2.347 2.347 0 0 1 2.348 2.348V43.68a2.346 2.346 0 0 1-2.348 2.343H42.344A2.346 2.346 0 0 1 40 43.68V32.37a2.346 2.346 0 0 1 2.344-2.348zm0 0" fill="url(#y)" fill-rule="evenodd"/><path d="M66.18 4a5.945 5.945 0 0 1 5.886 6v39.633H44.18V26c0-12.148 9.851-22 22-22zm0 0" fill="url(#z)" fill-rule="evenodd"/><path d="M66.18 17.988A5.953 5.953 0 0 1 72.066 24v34a6.045 6.045 0 0 1-6.043 6.043H50.27a6.09 6.09 0 0 1-6.09-6.09V39.988c0-12.148 9.851-22 22-22zm0 0" fill="#5e5c64" fill-rule="evenodd"/><path d="M32.066 20.113c0 6.63-5.37 12-12 12-6.625 0-12-5.37-12-12 0-6.625 5.375-12 12-12 6.63 0 12 5.375 12 12zm0 0" fill="#f6d32d" fill-rule="evenodd"/><path d="M31.86 22.336c-.29 1.617-4.934 1.418-6.005 2.664-1.09 1.27-.242 5.871-1.816 6.438-1.543.558-3.695-3.563-5.309-3.868-1.64-.308-5.207 2.727-6.484 1.645-1.254-1.059 1.238-4.98.695-6.527-.554-1.579-4.96-3.149-4.668-4.793.29-1.618 4.934-1.418 6.004-2.665 1.09-1.27.246-5.87 1.817-6.437 1.547-.559 3.695 3.562 5.308 3.867 1.645.309 5.207-2.726 6.485-1.648 1.258 1.058-1.239 4.984-.696 6.531.555 1.578 4.965 3.148 4.668 4.793zm0 0" fill="#fff" fill-rule="evenodd"/><path d="M20.105 54.102a8.053 8.053 0 1 1-16.105 0 8.054 8.054 0 1 1 16.105 0zm0 0" fill="#f5c211" fill-opacity=".776" fill-rule="evenodd"/><path d="M19.965 55.602c-.317 1.68-3.637.55-4.88 1.722-1.245 1.168-.32 4.551-2.015 4.766-1.695.215-1.648-3.29-3.144-4.11-1.496-.82-4.426 1.102-5.156-.44-.727-1.548 2.62-2.587 2.937-4.263.32-1.68-2.414-3.87-1.172-5.043 1.242-1.168 3.266 1.696 4.961 1.48 1.691-.218 2.934-3.495 4.43-2.675 1.5.824-.602 3.629.129 5.176.726 1.543 4.23 1.71 3.91 3.387zm0 0" fill="#fff" fill-rule="evenodd"/><path d="M107.203 50.836a6.01 6.01 0 0 1-2.2 8.21 6.01 6.01 0 0 1-8.206-2.202 6.007 6.007 0 0 1 2.2-8.207 6.005 6.005 0 0 1 8.206 2.199zm0 0" fill="#f5c211" fill-opacity=".784" fill-rule="evenodd"/><path d="M107.672 51.86c.414.968-2.34 2.19-2.797 3.14-.5 1.035.164 4.063-.895 4.516-.964.41-2.19-2.344-3.14-2.801-1.035-.5-4.063.168-4.512-.89-.414-.97 2.34-2.196 2.797-3.145.5-1.035-.164-4.063.895-4.512.964-.414 2.19 2.34 3.14 2.797 1.035.5 4.063-.164 4.512.894zm0 0" fill="#fff" fill-rule="evenodd"/><path d="M96.035 19.203a6.005 6.005 0 0 1-2.2 8.207 6.01 6.01 0 0 1-8.21-2.2 6.01 6.01 0 0 1 2.203-8.206 6.007 6.007 0 0 1 8.207 2.2zm0 0" fill="#f8e45c" fill-rule="evenodd"/><path d="M96.504 20.227c.371 1.015-2.281 2.363-2.75 3.34-.48.992.098 3.933-.942 4.312-1.015.375-2.363-2.281-3.34-2.75-.992-.48-3.937.098-4.316-.942-.37-1.015 2.281-2.363 2.754-3.34.477-.992-.097-3.933.938-4.312 1.02-.37 2.367 2.281 3.34 2.75.996.48 3.937-.097 4.316.942zm0 0" fill="#fff" fill-rule="evenodd"/><path d="M34.293 47.168a6.01 6.01 0 1 1-12.02 0 6.01 6.01 0 0 1 12.02 0zm0 0" fill="#f5c211" fill-opacity=".761" fill-rule="evenodd"/><path d="M34.188 48.29c-.083 1.065-3.305.284-4.188.886-.996.68-1.637 3.992-2.836 3.898-1.066-.086-.285-3.304-.887-4.187-.68-.996-3.992-1.637-3.898-2.84.086-1.067 3.305-.285 4.187-.887.997-.676 1.637-3.988 2.836-3.894 1.07.082.286 3.3.891 4.187.676.996 3.988 1.637 3.895 2.836zm0 0" fill="#fff" fill-rule="evenodd"/></g></g></mask><mask id="J"><g filter="url(#b)"><path fill-opacity=".8" d="M0 0h128v128H0z"/></g></mask><linearGradient id="K" gradientTransform="matrix(0 .37 -.98462 0 295.385 -30.36)" gradientUnits="userSpaceOnUse" x1="300" x2="428" y1="235" y2="235"><stop offset="0" stop-color="#f9f06b"/><stop offset="1" stop-color="#f5c211"/></linearGradient><clipPath id="I"><path d="M0 0h128v128H0z"/></clipPath><clipPath id="G"><path d="M0 0h128v128H0z"/></clipPath><path d="M51.242 82.367h31.469C91.152 82.367 98 89.215 98 97.66v5.05c0 8.442-6.848 15.29-15.29 15.29H51.243c-8.445 0-15.293-6.848-15.293-15.29v-5.05c0-8.445 6.848-15.293 15.293-15.293zm0 0" fill="url(#d)" fill-rule="evenodd"/><g clip-path="url(#A)"><g clip-path="url(#B)"><path d="M47.95 74.367H86c6.629 0 12 5.375 12 12V98c0 6.629-5.371 12-12 12H47.95c-6.626 0-12-5.371-12-12V86.367c0-6.625 5.374-12 12-12zm0 0" fill="url(#g)" fill-rule="evenodd"/></g></g><g clip-path="url(#C)"><g clip-path="url(#D)"><path d="M26 72h22c6.629 0 12 5.371 12 12v16c0 6.629-5.371 12-12 12H26c-6.629 0-12-5.371-12-12V84c0-6.629 5.371-12 12-12zm0 0" fill="url(#j)" fill-rule="evenodd"/></g></g><g clip-path="url(#E)"><g clip-path="url(#F)"><path d="M89.332 109.34 78 77.34H55.332L44 109.34zm0 0" fill="url(#m)"/></g></g><path d="M8 60v-4h38v26H30C17.852 82 8 72.148 8 60zm0 0" fill="#8b8893" fill-rule="evenodd"/><g clip-path="url(#G)" mask="url(#H)"><g clip-path="url(#I)" mask="url(#J)"><path d="M128 80.64V128H0V80.64zm0 0" fill="url(#K)"/><path d="M13.309 80.64 60.664 128H81.88L34.52 80.64zm42.421 0L103.094 128h21.215L76.945 80.64zm42.43 0L128 110.48V89.27l-8.629-8.63zM0 88.548v21.215L18.238 128h21.215zm0 0"/></g></g><path d="M42.969 46.46a10.995 10.995 0 0 0-11.02 11.02V72H24v11a3 3 0 0 0 3 3c9 0 2.578 10 15.969 10h54.015A10.994 10.994 0 0 0 108 84.98v-27.5c0-6.105-4.914-11.02-11.016-11.02zm0 0" fill="url(#n)" fill-rule="evenodd"/><path d="M8 56h38v15.742H30C19.578 73.472 9.727 66.422 8 56zm0 0" fill="url(#o)" fill-rule="evenodd"/><path d="M40.66 44a8.694 8.694 0 0 0-8.71 8.71v.368A2.922 2.922 0 0 1 29.026 56H24v14a2 2 0 0 0 2 2l3.094.004c1.578 0 2.797 1.328 3.34 2.797C33.617 78.02 36.844 80 40.66 80h58.63a8.694 8.694 0 0 0 8.71-8.71V52.71A8.694 8.694 0 0 0 99.29 44zm0 0" fill="#aeaab9" fill-rule="evenodd"/><path d="M37.633 40.738 24 28l-4 2 18.426 16.75zm0 0" fill="url(#p)"/><path d="M46.027 50A4.019 4.019 0 0 0 42 54.023v7.954A4.019 4.019 0 0 0 46.027 66h21.946A4.019 4.019 0 0 0 72 62h27.973c2.23 0 4.027-1.785 4.027-4s-1.797-4-4.027-4H72a4.019 4.019 0 0 0-4.027-4zm0 0" fill="#241f31" fill-opacity=".086" fill-rule="evenodd"/><path d="M64.602 68H53.148a46.993 46.993 0 0 1-21.109-5.008l-15.992-8.039v-3.906l19.652 9.805A1.593 1.593 0 0 0 38 59.426V59c0-1.281-.5-2.516-1.39-3.438l-4.583-4.722 1.118-3.113 6.71 5.312A1.324 1.324 0 0 0 42 52a4.52 4.52 0 0 0-1.48-3.343L20 30l4-2 18.793 17.559A23.899 23.899 0 0 0 59.117 52h.301a9.54 9.54 0 0 0 7.45-3.574l19.44-24.23 3.465 2L77.828 49.44a7.26 7.26 0 0 0 .203 7.004l1.047 1.774a3.123 3.123 0 0 0 3.817 1.328l20.132-7.781v3.87l-24.152 9.626A38.591 38.591 0 0 1 64.602 68zm0 0" fill="url(#q)"/><path d="M83 60.5C83 68.508 71.582 75 57.5 75S32 68.508 32 60.5 43.418 46 57.5 46 83 52.492 83 60.5zm0 0" fill="url(#r)" fill-rule="evenodd"/><path d="M86.258 24.195 73.063 40.707l7.167 2.313 9.293-16.38zm0 0" fill="#fff" fill-opacity=".482"/><g clip-path="url(#L)"><g clip-path="url(#M)"><path d="M54 30.023h66v16H54zm0 0" fill="url(#u)" fill-rule="evenodd"/></g></g><g clip-path="url(#N)"><g clip-path="url(#O)"><path d="M62 34.023h50a8 8 0 0 1 0 16H62a8 8 0 0 1 0-16zm0 0" fill="url(#x)" fill-rule="evenodd"/></g></g><g fill-rule="evenodd"><path d="M42.344 30.023h13.804a2.347 2.347 0 0 1 2.348 2.348V43.68a2.346 2.346 0 0 1-2.348 2.343H42.344A2.346 2.346 0 0 1 40 43.68V32.37a2.346 2.346 0 0 1 2.344-2.348zm0 0" fill="url(#y)"/><path d="M66.18 4a5.945 5.945 0 0 1 5.886 6v39.633H44.18V26c0-12.148 9.851-22 22-22zm0 0" fill="url(#z)"/><path d="M66.18 17.988A5.953 5.953 0 0 1 72.066 24v34a6.045 6.045 0 0 1-6.043 6.043H50.27a6.09 6.09 0 0 1-6.09-6.09V39.988c0-12.148 9.851-22 22-22zm0 0" fill="#5e5c64"/><path d="M32.066 20.113c0 6.63-5.37 12-12 12-6.625 0-12-5.37-12-12 0-6.625 5.375-12 12-12 6.63 0 12 5.375 12 12zm0 0" fill="#f6d32d"/><path d="M31.86 22.336c-.29 1.617-4.934 1.418-6.005 2.664-1.09 1.27-.242 5.871-1.816 6.438-1.543.558-3.695-3.563-5.309-3.868-1.64-.308-5.207 2.727-6.484 1.645-1.254-1.059 1.238-4.98.695-6.527-.554-1.579-4.96-3.149-4.668-4.793.29-1.618 4.934-1.418 6.004-2.665 1.09-1.27.246-5.87 1.817-6.437 1.547-.559 3.695 3.562 5.308 3.867 1.645.309 5.207-2.726 6.485-1.648 1.258 1.058-1.239 4.984-.696 6.531.555 1.578 4.965 3.148 4.668 4.793zm0 0" fill="#fff"/><path d="M20.105 54.102a8.053 8.053 0 1 1-16.105 0 8.054 8.054 0 1 1 16.105 0zm0 0" fill="#f5c211" fill-opacity=".776"/><path d="M19.965 55.602c-.317 1.68-3.637.55-4.88 1.722-1.245 1.168-.32 4.551-2.015 4.766-1.695.215-1.648-3.29-3.144-4.11-1.496-.82-4.426 1.102-5.156-.44-.727-1.548 2.62-2.587 2.937-4.263.32-1.68-2.414-3.87-1.172-5.043 1.242-1.168 3.266 1.696 4.961 1.48 1.691-.218 2.934-3.495 4.43-2.675 1.5.824-.602 3.629.129 5.176.726 1.543 4.23 1.71 3.91 3.387zm0 0" fill="#fff"/><path d="M107.203 50.836a6.01 6.01 0 0 1-2.2 8.21 6.01 6.01 0 0 1-8.206-2.202 6.007 6.007 0 0 1 2.2-8.207 6.005 6.005 0 0 1 8.206 2.199zm0 0" fill="#f5c211" fill-opacity=".784"/><path d="M107.672 51.86c.414.968-2.34 2.19-2.797 3.14-.5 1.035.164 4.063-.895 4.516-.964.41-2.19-2.344-3.14-2.801-1.035-.5-4.063.168-4.512-.89-.414-.97 2.34-2.196 2.797-3.145.5-1.035-.164-4.063.895-4.512.964-.414 2.19 2.34 3.14 2.797 1.035.5 4.063-.164 4.512.894zm0 0" fill="#fff"/><path d="M96.035 19.203a6.005 6.005 0 0 1-2.2 8.207 6.01 6.01 0 0 1-8.21-2.2 6.01 6.01 0 0 1 2.203-8.206 6.007 6.007 0 0 1 8.207 2.2zm0 0" fill="#f8e45c"/><path d="M96.504 20.227c.371 1.015-2.281 2.363-2.75 3.34-.48.992.098 3.933-.942 4.312-1.015.375-2.363-2.281-3.34-2.75-.992-.48-3.937.098-4.316-.942-.37-1.015 2.281-2.363 2.754-3.34.477-.992-.097-3.933.938-4.312 1.02-.37 2.367 2.281 3.34 2.75.996.48 3.937-.097 4.316.942zm0 0" fill="#fff"/><path d="M34.293 47.168a6.01 6.01 0 1 1-12.02 0 6.01 6.01 0 0 1 12.02 0zm0 0" fill="#f5c211" fill-opacity=".761"/><path d="M34.188 48.29c-.083 1.065-3.305.284-4.188.886-.996.68-1.637 3.992-2.836 3.898-1.066-.086-.285-3.304-.887-4.187-.68-.996-3.992-1.637-3.898-2.84.086-1.067 3.305-.285 4.187-.887.997-.676 1.637-3.988 2.836-3.894 1.07.082.286 3.3.891 4.187.676.996 3.988 1.637 3.895 2.836zm0 0" fill="#fff"/></g></svg>