<?xml version="1.0" encoding="UTF-8" standalone="no"?>
<svg
   height="128px"
   viewBox="0 0 128 128"
   width="128px"
   version="1.1"
   id="svg382"
   sodipodi:docname="com.mardojai.ForgeSparksDevel.svg"
   inkscape:version="1.2.2 (b0a8486541, 2022-12-01)"
   xmlns:inkscape="http://www.inkscape.org/namespaces/inkscape"
   xmlns:sodipodi="http://sodipodi.sourceforge.net/DTD/sodipodi-0.dtd"
   xmlns:xlink="http://www.w3.org/1999/xlink"
   xmlns="http://www.w3.org/2000/svg"
   xmlns:svg="http://www.w3.org/2000/svg">
  <defs
     id="defs386">
    <linearGradient
       inkscape:collect="always"
       id="linearGradient1501">
      <stop
         style="stop-color:#000000;stop-opacity:1;"
         offset="0"
         id="stop1482" />
      <stop
         style="stop-color:#ffffff;stop-opacity:1;"
         offset="0.07484111"
         id="stop1485" />
      <stop
         style="stop-color:#8b8b8b;stop-opacity:1;"
         offset="0.12298916"
         id="stop1487" />
      <stop
         style="stop-color:#707070;stop-opacity:1;"
         offset="0.15744641"
         id="stop1489" />
      <stop
         style="stop-color:#ffffff;stop-opacity:1;"
         offset="0.21442449"
         id="stop1491" />
      <stop
         style="stop-color:#ffffff;stop-opacity:1;"
         offset="0.87887287"
         id="stop1493" />
      <stop
         style="stop-color:#676767;stop-opacity:1;"
         offset="0.93169385"
         id="stop1495" />
      <stop
         style="stop-color:#808080;stop-opacity:1;"
         offset="0.95729017"
         id="stop1497" />
      <stop
         style="stop-color:#ffffff;stop-opacity:1;"
         offset="1"
         id="stop1499" />
    </linearGradient>
    <linearGradient
       inkscape:collect="always"
       id="linearGradient1154">
      <stop
         style="stop-color:#000000;stop-opacity:0.1503635;"
         offset="0"
         id="stop1150" />
      <stop
         style="stop-color:#000000;stop-opacity:0.82606339;"
         offset="0.32266438"
         id="stop1282" />
      <stop
         style="stop-color:#000000;stop-opacity:0.55294118;"
         offset="0.54725152"
         id="stop1284" />
      <stop
         style="stop-color:#000000;stop-opacity:0;"
         offset="1"
         id="stop1152" />
    </linearGradient>
    <linearGradient
       inkscape:collect="always"
       id="linearGradient1393">
      <stop
         style="stop-color:#ffffff;stop-opacity:1;"
         offset="0"
         id="stop1389" />
      <stop
         style="stop-color:#ffffff;stop-opacity:1;"
         offset="0.07484111"
         id="stop1488" />
      <stop
         style="stop-color:#8b8b8b;stop-opacity:1;"
         offset="0.12298916"
         id="stop1490" />
      <stop
         style="stop-color:#707070;stop-opacity:1;"
         offset="0.15744641"
         id="stop1500" />
      <stop
         style="stop-color:#ffffff;stop-opacity:1;"
         offset="0.21442449"
         id="stop1492" />
      <stop
         style="stop-color:#ffffff;stop-opacity:1;"
         offset="0.87887287"
         id="stop1486" />
      <stop
         style="stop-color:#676767;stop-opacity:1;"
         offset="0.93169385"
         id="stop1502" />
      <stop
         style="stop-color:#808080;stop-opacity:1;"
         offset="0.95729017"
         id="stop1484" />
      <stop
         style="stop-color:#ffffff;stop-opacity:1;"
         offset="1"
         id="stop1391" />
    </linearGradient>
    <clipPath
       clipPathUnits="userSpaceOnUse"
       id="clipPath590">
      <path
         id="path592"
         style="fill:#813d9c;stroke-width:1.51021"
         d="m 0.57101198,83.02694 v 16.612356 c 0,2.501294 2.02935032,4.530644 4.53064252,4.530644 13.5919125,0 3.8935435,15.10214 24.1162325,15.10214 h 81.575173 c 9.21466,0 16.63594,-7.4213 16.63594,-16.64185 V 85.445639 c 0,9.220552 -7.42128,12.713738 -16.63594,12.713738 H 29.217887 c -15.24457,0 -14.141011,-8.147017 -18.59646,-11.527178 -1.4549254,-1.103785 -3.6841374,-0.554536 -7.0299867,-0.554536 -2.3050399,0 -2.67975421,-0.822764 -2.96436917,-3.050723 z"
         sodipodi:nodetypes="cssssscsssscc" />
    </clipPath>
    <linearGradient
       inkscape:collect="always"
       xlink:href="#linearGradient1393"
       id="linearGradient1508"
       gradientUnits="userSpaceOnUse"
       gradientTransform="matrix(1.5102142,0,0,1.5102142,-36.120878,-52.892333)"
       x1="23.621901"
       y1="101.77926"
       x2="108.37809"
       y2="101.77926" />
    <linearGradient
       inkscape:collect="always"
       xlink:href="#linearGradient1154"
       id="linearGradient1156"
       x1="0.57101196"
       y1="98.129082"
       x2="15.594064"
       y2="98.129082"
       gradientUnits="userSpaceOnUse" />
    <mask
       maskUnits="userSpaceOnUse"
       id="mask1503">
      <rect
         style="fill:url(#linearGradient1507);fill-opacity:1;fill-rule:evenodd;stroke-width:2.65467;stroke-dasharray:2.65467, 7.96399;-inkscape-stroke:none;stop-color:#000000"
         id="rect1505"
         width="136.57088"
         height="46.824848"
         x="-2.8135641"
         y="79.971115"
         rx="5.9509511"
         ry="6.0792222" />
    </mask>
    <linearGradient
       inkscape:collect="always"
       xlink:href="#linearGradient1501"
       id="linearGradient1507"
       gradientUnits="userSpaceOnUse"
       gradientTransform="matrix(1.4783487,0,0,1.5102142,-32.536459,-52.892333)"
       x1="23.621901"
       y1="101.77926"
       x2="108.37809"
       y2="101.77926" />
  </defs>
  <sodipodi:namedview
     id="namedview384"
     pagecolor="#505050"
     bordercolor="#ffffff"
     borderopacity="1"
     inkscape:showpageshadow="0"
     inkscape:pageopacity="0"
     inkscape:pagecheckerboard="1"
     inkscape:deskcolor="#505050"
     showgrid="false"
     inkscape:current-layer="svg382" />
  <linearGradient
     id="a"
     gradientUnits="userSpaceOnUse"
     x1="36"
     x2="98"
     y1="112"
     y2="111.870819">
    <stop
       offset="0"
       stop-color="#5e5c64"
       id="stop2" />
    <stop
       offset="0.058645"
       stop-color="#878491"
       id="stop4" />
    <stop
       offset="0.143736"
       stop-color="#5e5c64"
       id="stop6" />
    <stop
       offset="0.849022"
       stop-color="#5e5c64"
       id="stop8" />
    <stop
       offset="0.940255"
       stop-color="#6c6a73"
       id="stop10" />
    <stop
       offset="1"
       stop-color="#343338"
       id="stop12" />
  </linearGradient>
  <clipPath
     id="b">
    <path
       d="m 35 74 h 63 v 36 h -63 z m 0 0"
       id="path15" />
  </clipPath>
  <clipPath
     id="c">
    <path
       d="m 49.78125 74.367188 h 34.386719 c 7.640625 0 13.832031 6.195312 13.832031 13.832031 v 7.96875 c 0 7.640625 -6.191406 13.832031 -13.832031 13.832031 h -34.386719 c -7.640625 0 -13.832031 -6.191406 -13.832031 -13.832031 v -7.96875 c 0 -7.636719 6.191406 -13.832031 13.832031 -13.832031 z m 0 0"
       id="path18" />
  </clipPath>
  <linearGradient
     id="d"
     gradientUnits="userSpaceOnUse"
     x1="89"
     x2="87.649246"
     y1="92"
     y2="103.491241">
    <stop
       offset="0"
       stop-color="#454545"
       id="stop21" />
    <stop
       offset="0.404065"
       stop-color="#38353f"
       id="stop23" />
    <stop
       offset="1"
       stop-color="#77767b"
       id="stop25" />
  </linearGradient>
  <clipPath
     id="e">
    <path
       d="m 35 74 h 25 v 36 h -25 z m 0 0"
       id="path28" />
  </clipPath>
  <clipPath
     id="f">
    <path
       d="m 49.78125 74.367188 h 34.386719 c 7.640625 0 13.832031 6.195312 13.832031 13.832031 v 7.96875 c 0 7.640625 -6.191406 13.832031 -13.832031 13.832031 h -34.386719 c -7.640625 0 -13.832031 -6.191406 -13.832031 -13.832031 v -7.96875 c 0 -7.636719 6.191406 -13.832031 13.832031 -13.832031 z m 0 0"
       id="path31" />
  </clipPath>
  <linearGradient
     id="g"
     gradientUnits="userSpaceOnUse"
     x1="44"
     x2="48"
     y1="96"
     y2="88">
    <stop
       offset="0"
       stop-color="#77767b"
       id="stop34" />
    <stop
       offset="1"
       stop-color="#241f31"
       id="stop36" />
  </linearGradient>
  <clipPath
     id="h">
    <path
       d="m 44 77 h 46 v 33 h -46 z m 0 0"
       id="path39" />
  </clipPath>
  <clipPath
     id="i">
    <path
       d="m 49.78125 74.367188 h 34.386719 c 7.640625 0 13.832031 6.195312 13.832031 13.832031 v 7.96875 c 0 7.640625 -6.191406 13.832031 -13.832031 13.832031 h -34.386719 c -7.640625 0 -13.832031 -6.191406 -13.832031 -13.832031 v -7.96875 c 0 -7.636719 6.191406 -13.832031 13.832031 -13.832031 z m 0 0"
       id="path42" />
  </clipPath>
  <linearGradient
     id="j"
     gradientTransform="matrix(-0.708333 0 0 1 117.666672 -174.660249)"
     gradientUnits="userSpaceOnUse"
     x1="74"
     x2="74"
     y1="266"
     y2="279">
    <stop
       offset="0"
       stop-color="#3d3846"
       id="stop45" />
    <stop
       offset="1"
       stop-color="#77767b"
       id="stop47" />
  </linearGradient>
  <linearGradient
     id="k"
     gradientUnits="userSpaceOnUse"
     x1="24"
     x2="108"
     y1="89.382172"
     y2="89.382172">
    <stop
       offset="0"
       stop-color="#8b8893"
       id="stop50" />
    <stop
       offset="0.0143736"
       stop-color="#bfbbce"
       id="stop52" />
    <stop
       offset="0.0373841"
       stop-color="#888591"
       id="stop54" />
    <stop
       offset="0.0698814"
       stop-color="#726f79"
       id="stop56" />
    <stop
       offset="0.0952381"
       stop-color="#888591"
       id="stop58" />
    <stop
       offset="0.142857"
       stop-color="#b9b5c8"
       id="stop60" />
    <stop
       offset="0.189877"
       stop-color="#888591"
       id="stop62" />
    <stop
       offset="0.849022"
       stop-color="#898692"
       id="stop64" />
    <stop
       offset="0.940255"
       stop-color="#b9b5c5"
       id="stop66" />
    <stop
       offset="1"
       stop-color="#343338"
       id="stop68" />
  </linearGradient>
  <linearGradient
     id="l"
     gradientTransform="matrix(1 0 0 0.65598 0 -89.627457)"
     gradientUnits="userSpaceOnUse"
     x1="18"
     x2="18"
     y1="224"
     y2="241.855728">
    <stop
       offset="0"
       stop-color="#8b8893"
       id="stop71" />
    <stop
       offset="0.43147"
       stop-color="#bebacd"
       id="stop73" />
    <stop
       offset="1"
       stop-color="#8b8893"
       id="stop75" />
  </linearGradient>
  <linearGradient
     id="m"
     gradientUnits="userSpaceOnUse"
     x1="24"
     x2="107.999992"
     y1="82"
     y2="82">
    <stop
       offset="0"
       stop-color="#b7b3c2"
       id="stop78" />
    <stop
       offset="0.0141363"
       stop-color="#ddd8eb"
       id="stop80" />
    <stop
       offset="0.0489949"
       stop-color="#b7b3c2"
       id="stop82" />
    <stop
       offset="0.0790956"
       stop-color="#96939f"
       id="stop84" />
    <stop
       offset="0.124125"
       stop-color="#ece8fa"
       id="stop86" />
    <stop
       offset="0.188625"
       stop-color="#b7b3c2"
       id="stop88" />
    <stop
       offset="0.87631"
       stop-color="#b7b3c2"
       id="stop90" />
    <stop
       offset="0.946152"
       stop-color="#e1dcee"
       id="stop92" />
    <stop
       offset="1"
       stop-color="#b7b3c2"
       id="stop94" />
  </linearGradient>
  <radialGradient
     id="n"
     cx="56"
     cy="243.890442"
     gradientTransform="matrix(0.996699 0.00000013 -0.0000001 0.730913 0.18487 -116.262665)"
     gradientUnits="userSpaceOnUse"
     r="40.132465">
    <stop
       offset="0"
       stop-color="#ffffff"
       stop-opacity="0.466667"
       id="stop97" />
    <stop
       offset="1"
       stop-color="#ffffff"
       stop-opacity="0.105882"
       id="stop99" />
  </radialGradient>
  <linearGradient
     id="o"
     gradientUnits="userSpaceOnUse"
     x1="20"
     x2="27"
     y1="59"
     y2="61">
    <stop
       offset="0"
       stop-color="#ffffff"
       stop-opacity="0.670588"
       id="stop102" />
    <stop
       offset="1"
       stop-color="#ffffff"
       stop-opacity="0"
       id="stop104" />
  </linearGradient>
  <radialGradient
     id="p"
     cx="57.5"
     cy="231"
     gradientTransform="matrix(1.243902 0 0 0.707317 -14.02439 -102.890244)"
     gradientUnits="userSpaceOnUse"
     r="20.5">
    <stop
       offset="0"
       stop-color="#f9f06b"
       id="stop107" />
    <stop
       offset="1"
       stop-color="#f9f06b"
       stop-opacity="0"
       id="stop109" />
  </radialGradient>
  <clipPath
     id="q">
    <path
       d="m 54 30 h 66 v 17 h -66 z m 0 0"
       id="path112" />
  </clipPath>
  <clipPath
     id="r">
    <path
       d="m 62 30.023438 h 50 c 4.417969 0 8 3.582031 8 8 c 0 4.417968 -3.582031 8 -8 8 h -50 c -4.417969 0 -8 -3.582032 -8 -8 c 0 -4.417969 3.582031 -8 8 -8 z m 0 0"
       id="path115" />
  </clipPath>
  <radialGradient
     id="s"
     cx="89"
     cy="182.900894"
     gradientTransform="matrix(0.878788 0 0 0.242424 10.787879 -14.339618)"
     gradientUnits="userSpaceOnUse"
     r="33">
    <stop
       offset="0"
       stop-color="#ff9236"
       id="stop118" />
    <stop
       offset="1"
       stop-color="#b5835a"
       id="stop120" />
  </radialGradient>
  <clipPath
     id="t">
    <path
       d="m 54 34 h 66 v 13 h -66 z m 0 0"
       id="path123" />
  </clipPath>
  <clipPath
     id="u">
    <path
       d="m 62 30.023438 h 50 c 4.417969 0 8 3.582031 8 8 c 0 4.417968 -3.582031 8 -8 8 h -50 c -4.417969 0 -8 -3.582032 -8 -8 c 0 -4.417969 3.582031 -8 8 -8 z m 0 0"
       id="path126" />
  </clipPath>
  <linearGradient
     id="v"
     gradientUnits="userSpaceOnUse"
     x1="96"
     x2="96"
     y1="40.02403"
     y2="46.02403">
    <stop
       offset="0"
       stop-color="#865e3c"
       id="stop129" />
    <stop
       offset="1"
       stop-color="#66462e"
       id="stop131" />
  </linearGradient>
  <linearGradient
     id="w"
     gradientUnits="userSpaceOnUse"
     x1="42.495007"
     x2="42.495007"
     y1="30.02403"
     y2="46.02403">
    <stop
       offset="0"
       stop-color="#865e3c"
       id="stop134" />
    <stop
       offset="0.285762"
       stop-color="#b5835a"
       id="stop136" />
    <stop
       offset="1"
       stop-color="#66462e"
       id="stop138" />
  </linearGradient>
  <linearGradient
     id="x"
     gradientUnits="userSpaceOnUse"
     x1="44.179985"
     x2="72.999977"
     y1="26.815765"
     y2="26.815765">
    <stop
       offset="0"
       stop-color="#9a9996"
       id="stop141" />
    <stop
       offset="0.286599"
       stop-color="#b8b7b4"
       id="stop143" />
    <stop
       offset="0.791156"
       stop-color="#9a9996"
       id="stop145" />
    <stop
       offset="0.901462"
       stop-color="#d4d3cf"
       id="stop147" />
    <stop
       offset="1"
       stop-color="#585855"
       id="stop149" />
  </linearGradient>
  <clipPath
     id="y">
    <path
       d="m 35 74 h 63 v 36 h -63 z m 0 0"
       id="path152" />
  </clipPath>
  <clipPath
     id="z">
    <path
       d="m 49.78125 74.367188 h 34.386719 c 7.640625 0 13.832031 6.195312 13.832031 13.832031 v 7.96875 c 0 7.640625 -6.191406 13.832031 -13.832031 13.832031 h -34.386719 c -7.640625 0 -13.832031 -6.191406 -13.832031 -13.832031 v -7.96875 c 0 -7.636719 6.191406 -13.832031 13.832031 -13.832031 z m 0 0"
       id="path155" />
  </clipPath>
  <clipPath
     id="A">
    <path
       d="m 35 74 h 25 v 36 h -25 z m 0 0"
       id="path158" />
  </clipPath>
  <clipPath
     id="B">
    <path
       d="m 49.78125 74.367188 h 34.386719 c 7.640625 0 13.832031 6.195312 13.832031 13.832031 v 7.96875 c 0 7.640625 -6.191406 13.832031 -13.832031 13.832031 h -34.386719 c -7.640625 0 -13.832031 -6.191406 -13.832031 -13.832031 v -7.96875 c 0 -7.636719 6.191406 -13.832031 13.832031 -13.832031 z m 0 0"
       id="path161" />
  </clipPath>
  <clipPath
     id="C">
    <path
       d="m 44 77 h 46 v 33 h -46 z m 0 0"
       id="path164" />
  </clipPath>
  <clipPath
     id="D">
    <path
       d="m 49.78125 74.367188 h 34.386719 c 7.640625 0 13.832031 6.195312 13.832031 13.832031 v 7.96875 c 0 7.640625 -6.191406 13.832031 -13.832031 13.832031 h -34.386719 c -7.640625 0 -13.832031 -6.191406 -13.832031 -13.832031 v -7.96875 c 0 -7.636719 6.191406 -13.832031 13.832031 -13.832031 z m 0 0"
       id="path167" />
  </clipPath>
  <clipPath
     id="E">
    <path
       d="m 54 30 h 66 v 17 h -66 z m 0 0"
       id="path170" />
  </clipPath>
  <clipPath
     id="F">
    <path
       d="m 62 30.023438 h 50 c 4.417969 0 8 3.582031 8 8 c 0 4.417968 -3.582031 8 -8 8 h -50 c -4.417969 0 -8 -3.582032 -8 -8 c 0 -4.417969 3.582031 -8 8 -8 z m 0 0"
       id="path173" />
  </clipPath>
  <clipPath
     id="G">
    <path
       d="m 54 34 h 66 v 13 h -66 z m 0 0"
       id="path176" />
  </clipPath>
  <clipPath
     id="H">
    <path
       d="m 62 30.023438 h 50 c 4.417969 0 8 3.582031 8 8 c 0 4.417968 -3.582031 8 -8 8 h -50 c -4.417969 0 -8 -3.582032 -8 -8 c 0 -4.417969 3.582031 -8 8 -8 z m 0 0"
       id="path179" />
  </clipPath>
  <clipPath
     id="I">
    <rect
       height="128"
       width="128"
       id="rect182" />
  </clipPath>
  <clipPath
     id="J">
    <rect
       height="128"
       width="128"
       id="rect185" />
  </clipPath>
  <filter
     id="K"
     height="1"
     width="1"
     x="0"
     y="0">
    <feColorMatrix
       in="SourceGraphic"
       type="matrix"
       values="0 0 0 0 1 0 0 0 0 1 0 0 0 0 1 0 0 0 1 0"
       id="feColorMatrix188" />
  </filter>
  <mask
     id="M">
    <g
       filter="url(#K)"
       id="g278">
      <rect
         fill-opacity="0.8"
         height="128"
         width="128"
         id="rect276" />
    </g>
  </mask>
  <linearGradient
     id="N"
     gradientTransform="matrix(0,0.37,-0.98462,0,295.38501,-30.360001)"
     gradientUnits="userSpaceOnUse"
     x1="300"
     x2="428"
     y1="235"
     y2="235">
    <stop
       offset="0"
       stop-color="#f9f06b"
       id="stop281" />
    <stop
       offset="1"
       stop-color="#f5c211"
       id="stop283" />
  </linearGradient>
  <clipPath
     id="O">
    <rect
       height="128"
       width="128"
       id="rect286" />
  </clipPath>
  <path
     d="m 51.242188 82.367188 h 31.46875 c 8.441406 0 15.289062 6.847656 15.289062 15.292968 v 5.050782 c 0 8.441406 -6.847656 15.289062 -15.289062 15.289062 h -31.46875 c -8.445313 0 -15.292969 -6.847656 -15.292969 -15.289062 v -5.050782 c 0 -8.445312 6.847656 -15.292968 15.292969 -15.292968 z m 0 0"
     fill="url(#a)"
     fill-rule="evenodd"
     id="path292" />
  <g
     clip-path="url(#b)"
     id="g298">
    <g
       clip-path="url(#c)"
       id="g296">
      <path
         d="m 47.949219 74.367188 h 38.050781 c 6.628906 0 12 5.375 12 12 v 11.632812 c 0 6.628906 -5.371094 12 -12 12 h -38.050781 c -6.625 0 -12 -5.371094 -12 -12 v -11.632812 c 0 -6.625 5.375 -12 12 -12 z m 0 0"
         fill="url(#d)"
         fill-rule="evenodd"
         id="path294" />
    </g>
  </g>
  <g
     clip-path="url(#e)"
     id="g304">
    <g
       clip-path="url(#f)"
       id="g302">
      <path
         d="m 26 72 h 22 c 6.628906 0 12 5.371094 12 12 v 16 c 0 6.628906 -5.371094 12 -12 12 h -22 c -6.628906 0 -12 -5.371094 -12 -12 v -16 c 0 -6.628906 5.371094 -12 12 -12 z m 0 0"
         fill="url(#g)"
         fill-rule="evenodd"
         id="path300" />
    </g>
  </g>
  <g
     clip-path="url(#h)"
     id="g310">
    <g
       clip-path="url(#i)"
       id="g308">
      <path
         d="m 89.332031 109.339844 l -11.332031 -32 h -22.667969 l -11.332031 32 z m 0 0"
         fill="url(#j)"
         id="path306" />
    </g>
  </g>
  <path
     d="m 8 60 v -4 h 38 v 26 h -16 c -12.148438 0 -22 -9.851562 -22 -22 z m 0 0"
     fill="#8b8893"
     fill-rule="evenodd"
     id="path312" />
  <path
     d="m 42.96875 46.460938 c -6.105469 0 -11.019531 4.914062 -11.019531 11.019531 v 14.519531 h -7.949219 v 11 c 0 1.65625 1.34375 3 3 3 c 9 0 2.578125 10 15.96875 10 h 54.015625 c 6.101563 0 11.015625 -4.914062 11.015625 -11.019531 v -27.5 c 0 -6.105469 -4.914062 -11.019531 -11.015625 -11.019531 z m 0 0"
     fill="url(#k)"
     fill-rule="evenodd"
     id="path314" />
  <path
     d="m 8 56 h 38 v 15.742188 h -16 c -10.421875 1.730468 -20.273438 -5.320313 -22 -15.742188 z m 0 0"
     fill="url(#l)"
     fill-rule="evenodd"
     id="path316" />
  <path
     d="m 40.660156 46 c -4.824218 0 -8.710937 3.886719 -8.710937 8.710938 v 0.367187 c 0 1.613281 -1.308594 2.921875 -2.921875 2.921875 h -5.027344 v 14 c 0 1.105469 0.894531 2 2 2 l 3.09375 0.003906 c 1.578125 0 2.796875 1.328125 3.339844 2.796875 c 1.183594 3.21875 4.410156 5.199219 8.226562 5.199219 h 58.628906 c 4.824219 0 8.710938 -3.886719 8.710938 -8.710938 v -18.578124 c 0 -4.824219 -3.886719 -8.710938 -8.710938 -8.710938 z m 0 0"
     fill="url(#m)"
     fill-rule="evenodd"
     id="path318" />
  <path
     d="m 40.660156 44 c -4.824218 0 -8.710937 3.886719 -8.710937 8.710938 v 0.367187 c 0 1.613281 -1.308594 2.921875 -2.921875 2.921875 h -5.027344 v 14 c 0 1.105469 0.894531 2 2 2 l 3.09375 0.003906 c 1.578125 0 2.796875 1.328125 3.339844 2.796875 c 1.183594 3.21875 4.410156 5.199219 8.226562 5.199219 h 58.628906 c 4.824219 0 8.710938 -3.886719 8.710938 -8.710938 v -18.578124 c 0 -4.824219 -3.886719 -8.710938 -8.710938 -8.710938 z m 0 0"
     fill="#aeaab9"
     fill-rule="evenodd"
     id="path320" />
  <path
     d="m 46.027344 50 c -2.230469 0 -4.027344 1.796875 -4.027344 4.023438 v 7.953124 c 0 2.226563 1.796875 4.023438 4.027344 4.023438 h 21.945312 c 2.222656 0 4.011719 -1.78125 4.027344 -4 h 27.972656 c 2.230469 0 4.027344 -1.785156 4.027344 -4 s -1.796875 -4 -4.027344 -4 h -27.972656 c -0.015625 -2.21875 -1.804688 -4 -4.027344 -4 z m 0 0"
     fill="#241f31"
     fill-opacity="0.086275"
     fill-rule="evenodd"
     id="path322" />
  <path
     d="m 64.601562 68 h -11.453124 c -7.371094 0 -14.679688 -1.34375 -21.566407 -3.96875 l -0.851562 -0.324219 c -6.277344 -2.421875 -13.03125 -3.347656 -19.730469 -2.707031 l 5.046875 -9.953125 l 19.652344 9.804687 c 0.492187 0.246094 1.078125 0.21875 1.546875 -0.070312 s 0.753906 -0.800781 0.753906 -1.355469 v -0.425781 c 0 -1.28125 -0.5 -2.515625 -1.390625 -3.4375 l -4.582031 -4.722656 l 1.117187 -3.113282 l 6.710938 5.3125 c 0.398437 0.3125 0.941406 0.375 1.398437 0.152344 c 0.457032 -0.222656 0.746094 -0.683594 0.746094 -1.191406 c 0 -1.273438 -0.539062 -2.488281 -1.480469 -3.34375 l -10.566406 -9.605469 c -2.523437 -2.296875 -5.382813 -4.1875 -8.484375 -5.613281 l -6.03125 -2.777344 c -0.265625 -0.121094 -0.4375 -0.382812 -0.441406 -0.675781 s 0.15625 -0.5625 0.417968 -0.691406 l 11.257813 -5.628907 c 0.769531 -0.386718 1.679687 -0.375 2.441406 0.023438 c 0.761719 0.402344 1.285157 1.144531 1.402344 1.996094 l 0.601563 4.300781 c 0.488281 3.472656 2.152343 6.675781 4.714843 9.074219 l 6.960938 6.5 c 4.429687 4.140625 10.261719 6.441406 16.324219 6.441406 h 0.300781 c 2.898437 0 5.636719 -1.3125 7.449219 -3.574219 l 19.441406 -24.230469 l 3.464844 2 l -11.945313 23.246094 c -1.136719 2.214844 -1.0625 4.859375 0.203125 7.003906 l 1.046875 1.773438 c 0.773437 1.316406 2.390625 1.878906 3.816406 1.328125 l 1.71875 -0.667969 c 4.910157 -1.894531 9.433594 -4.675781 13.34375 -8.199218 l 2.894531 -2.601563 l 2.175782 11.648437 l -1.460938 -0.054687 c -5.246094 -0.183594 -10.476562 0.722656 -15.355468 2.664063 l -7.335938 2.925781 c -4.542969 1.808593 -9.386719 2.738281 -14.273438 2.738281 z m 0 0"
     fill="url(#n)"
     id="path324" />
  <path
     d="m 31.582031 64.03125 l -0.851562 -0.324219 c -6.277344 -2.421875 -13.03125 -3.347656 -19.730469 -2.707031 l 5.046875 -9.953125 l 19.652344 9.804687 z m 0 0"
     fill="url(#o)"
     id="path326" />
  <path
     d="m 83 60.5 c 0 8.007812 -11.417969 14.5 -25.5 14.5 s -25.5 -6.492188 -25.5 -14.5 s 11.417969 -14.5 25.5 -14.5 s 25.5 6.492188 25.5 14.5 z m 0 0"
     fill="url(#p)"
     fill-rule="evenodd"
     id="path328" />
  <g
     clip-path="url(#clipPath590)"
     mask="url(#mask1503)"
     id="g380"
     transform="matrix(0.66215774,0,0,0.66215774,23.6219,17.023069)">
    <g
       clip-path="url(#O)"
       mask="url(#M)"
       id="g378">
      <path
         d="M 128,80.640625 V 128 H 0 V 80.640625 Z m 0,0"
         fill="url(#N)"
         id="path374"
         style="fill:url(#N)" />
      <path
         d="M 13.308594,80.640625 60.664062,128 H 81.878906 L 34.519531,80.640625 Z m 42.421875,0 L 103.09375,128 h 21.21484 L 76.945312,80.640625 Z m 42.429687,0 L 128,110.48047 V 89.269531 l -8.62891,-8.628906 z M 0,88.546875 V 109.76172 L 18.238281,128 h 21.214844 z m 0,0"
         id="path376" />
    </g>
    <rect
       style="fill:url(#linearGradient1156);fill-rule:evenodd;stroke-width:2.68312;stroke-dasharray:2.68312, 8.04937;-inkscape-stroke:none;stop-color:#000000;fill-opacity:1"
       id="rect396"
       width="52.397354"
       height="79.551712"
       x="-12.891129"
       y="60.863369"
       rx="6.0792222"
       ry="6.0792222" />
  </g>
  <path
     d="m 86.257812 24.195312 l -13.195312 16.511719 l 7.167969 2.3125 l 9.292969 -16.378906 z m 0 0"
     fill="#ffffff"
     fill-opacity="0.482353"
     id="path330" />
  <g
     clip-path="url(#q)"
     id="g336">
    <g
       clip-path="url(#r)"
       id="g334">
      <path
         d="m 54 30.023438 h 66 v 16 h -66 z m 0 0"
         fill="url(#s)"
         fill-rule="evenodd"
         id="path332" />
    </g>
  </g>
  <g
     clip-path="url(#t)"
     id="g342">
    <g
       clip-path="url(#u)"
       id="g340">
      <path
         d="m 62 34.023438 h 50 c 4.417969 0 8 3.582031 8 8 c 0 4.417968 -3.582031 8 -8 8 h -50 c -4.417969 0 -8 -3.582032 -8 -8 c 0 -4.417969 3.582031 -8 8 -8 z m 0 0"
         fill="url(#v)"
         fill-rule="evenodd"
         id="path338" />
    </g>
  </g>
  <g
     fill-rule="evenodd"
     id="g370">
    <path
       d="m 42.34375 30.023438 h 13.804688 c 1.296874 0 2.347656 1.050781 2.347656 2.347656 v 11.308594 c 0 1.292968 -1.050782 2.34375 -2.347656 2.34375 h -13.804688 c -1.292969 0 -2.34375 -1.050782 -2.34375 -2.34375 v -11.308594 c 0 -1.296875 1.050781 -2.347656 2.34375 -2.347656 z m 0 0"
       fill="url(#w)"
       id="path344" />
    <path
       d="m 66.179688 4 c 3.28125 0.03125 5.917968 2.71875 5.886718 6 v 39.632812 h -27.886718 v -23.632812 c 0 -12.148438 9.851562 -22 22 -22 z m 0 0"
       fill="url(#x)"
       id="path346" />
    <path
       d="m 66.179688 17.988281 c 3.285156 0.035157 5.917968 2.726563 5.886718 6.011719 v 34 c 0 3.335938 -2.707031 6.042969 -6.042968 6.042969 h -15.753907 c -3.363281 0 -6.089843 -2.726563 -6.089843 -6.089844 v -17.964844 c 0 -12.148437 9.851562 -22 22 -22 z m 0 0"
       fill="#5e5c64"
       id="path348" />
    <path
       d="m 32.066406 20.113281 c 0 6.628907 -5.371094 12 -12 12 c -6.625 0 -12 -5.371093 -12 -12 c 0 -6.625 5.375 -12 12 -12 c 6.628906 0 12 5.375 12 12 z m 0 0"
       fill="#f6d32d"
       id="path350" />
    <path
       d="m 31.859375 22.335938 c -0.289063 1.617187 -4.933594 1.417968 -6.003906 2.664062 c -1.089844 1.269531 -0.242188 5.871094 -1.816407 6.4375 c -1.542968 0.558594 -3.695312 -3.5625 -5.308593 -3.867188 c -1.640625 -0.308593 -5.207031 2.726563 -6.484375 1.644532 c -1.253906 -1.058594 1.238281 -4.980469 0.695312 -6.527344 c -0.554687 -1.578125 -4.960937 -3.148438 -4.667968 -4.792969 c 0.289062 -1.617187 4.933593 -1.417969 6.003906 -2.664062 c 1.089844 -1.269531 0.246094 -5.871094 1.816406 -6.4375 c 1.546875 -0.558594 3.695312 3.5625 5.308594 3.867187 c 1.644531 0.308594 5.207031 -2.726562 6.484375 -1.648437 c 1.257812 1.058593 -1.238281 4.984375 -0.695313 6.53125 c 0.554688 1.578125 4.964844 3.148437 4.667969 4.792969 z m 0 0"
       fill="#ffffff"
       id="path352" />
    <path
       d="m 20.105469 54.101562 c 0 4.449219 -3.605469 8.054688 -8.050781 8.054688 c -4.449219 0 -8.054688 -3.605469 -8.054688 -8.054688 c 0 -4.449218 3.605469 -8.054687 8.054688 -8.054687 c 4.445312 0 8.050781 3.605469 8.050781 8.054687 z m 0 0"
       fill="#f5c211"
       fill-opacity="0.776471"
       id="path354" />
    <path
       d="m 19.964844 55.601562 c -0.316406 1.679688 -3.636719 0.550782 -4.878906 1.722657 c -1.246094 1.167969 -0.320313 4.550781 -2.015626 4.765625 c -1.695312 0.214844 -1.648437 -3.289063 -3.144531 -4.109375 c -1.496093 -0.820313 -4.425781 1.101562 -5.15625 -0.441407 c -0.726562 -1.546874 2.621094 -2.585937 2.9375 -4.261718 c 0.320313 -1.679688 -2.414062 -3.871094 -1.171875 -5.042969 c 1.242188 -1.167969 3.265625 1.695313 4.960938 1.480469 c 1.691406 -0.21875 2.933594 -3.496094 4.429687 -2.675782 c 1.5 0.824219 -0.601562 3.628907 0.128907 5.175782 c 0.726562 1.542968 4.230468 1.710937 3.910156 3.386718 z m 0 0"
       fill="#ffffff"
       id="path356" />
    <path
       d="m 107.203125 50.835938 c 1.660156 2.875 0.675781 6.550781 -2.199219 8.210937 c -2.875 1.65625 -6.550781 0.671875 -8.207031 -2.203125 c -1.660156 -2.871094 -0.675781 -6.546875 2.199219 -8.207031 c 2.875 -1.660157 6.550781 -0.675781 8.207031 2.199219 z m 0 0"
       fill="#f5c211"
       fill-opacity="0.784314"
       id="path358" />
    <path
       d="m 107.671875 51.859375 c 0.414063 0.96875 -2.339844 2.191406 -2.796875 3.140625 c -0.5 1.035156 0.164062 4.0625 -0.894531 4.515625 c -0.964844 0.410156 -2.191407 -2.34375 -3.140625 -2.800781 c -1.035156 -0.5 -4.0625 0.167968 -4.511719 -0.890625 c -0.414063 -0.96875 2.339844 -2.195313 2.796875 -3.144531 c 0.5 -1.035157 -0.164062 -4.0625 0.894531 -4.511719 c 0.964844 -0.414063 2.191407 2.339843 3.140625 2.796875 c 1.035156 0.5 4.0625 -0.164063 4.511719 0.894531 z m 0 0"
       fill="#ffffff"
       id="path360" />
    <path
       d="m 96.035156 19.203125 c 1.660156 2.875 0.675782 6.550781 -2.199218 8.207031 c -2.875 1.660156 -6.550782 0.675782 -8.210938 -2.199218 c -1.65625 -2.875 -0.671875 -6.546876 2.203125 -8.207032 c 2.871094 -1.660156 6.546875 -0.675781 8.207031 2.199219 z m 0 0"
       fill="#f8e45c"
       id="path362" />
    <path
       d="m 96.503906 20.226562 c 0.371094 1.015626 -2.28125 2.363282 -2.75 3.339844 c -0.480468 0.992188 0.097656 3.933594 -0.941406 4.3125 c -1.015625 0.375 -2.363281 -2.28125 -3.339844 -2.75 c -0.992187 -0.480468 -3.9375 0.097656 -4.316406 -0.941406 c -0.371094 -1.015625 2.28125 -2.363281 2.753906 -3.339844 c 0.476563 -0.992187 -0.097656 -3.933594 0.9375 -4.3125 c 1.019532 -0.371094 2.367188 2.28125 3.339844 2.75 c 0.996094 0.480469 3.9375 -0.097656 4.316406 0.941406 z m 0 0"
       fill="#ffffff"
       id="path364" />
    <path
       d="m 34.292969 47.167969 c 0 3.320312 -2.691407 6.011719 -6.007813 6.011719 c -3.320312 0 -6.011718 -2.691407 -6.011718 -6.011719 c 0 -3.316407 2.691406 -6.007813 6.011718 -6.007813 c 3.316406 0 6.007813 2.691406 6.007813 6.007813 z m 0 0"
       fill="#f5c211"
       fill-opacity="0.760784"
       id="path366" />
    <path
       d="m 34.1875 48.289062 c -0.082031 1.066407 -3.304688 0.285157 -4.1875 0.886719 c -0.996094 0.679688 -1.636719 3.992188 -2.835938 3.898438 c -1.066406 -0.085938 -0.285156 -3.304688 -0.886718 -4.1875 c -0.679688 -0.996094 -3.992188 -1.636719 -3.898438 -2.839844 c 0.085938 -1.066406 3.304688 -0.285156 4.1875 -0.886719 c 0.996094 -0.675781 1.636719 -3.988281 2.835938 -3.894531 c 1.070312 0.082031 0.285156 3.300781 0.890625 4.1875 c 0.675781 0.996094 3.988281 1.636719 3.894531 2.835937 z m 0 0"
       fill="#ffffff"
       id="path368" />
  </g>
  <path
     d="m 36.496094 44.992188 c -7.496094 -6.992188 -11.925782 -10.128907 -15.027344 -11.554688 l -6.03125 -2.777344 c -0.578125 -0.265625 -0.59375 -1.082031 -0.023438 -1.367187 l 11.257813 -5.628907 c 1.636719 -0.816406 3.589844 0.210938 3.84375 2.019532 l 0.601563 4.300781 c 0.488281 3.472656 1.054687 6.226563 11.007812 15.015625 z m 0 0"
     fill="url(#n)"
     id="path372" />
</svg>
