<?xml version="1.0" encoding="UTF-8"?>
<svg width="512" height="350" version="1.1" viewBox="0 0 512 350" xmlns="http://www.w3.org/2000/svg" xmlns:cc="http://creativecommons.org/ns#" xmlns:dc="http://purl.org/dc/elements/1.1/" xmlns:rdf="http://www.w3.org/1999/02/22-rdf-syntax-ns#" xmlns:xlink="http://www.w3.org/1999/xlink">
 <metadata>
  <rdf:RDF>
   <cc:Work rdf:about="">
    <dc:format>image/svg+xml</dc:format>
    <dc:type rdf:resource="http://purl.org/dc/dcmitype/StillImage"/>
   </cc:Work>
  </rdf:RDF>
 </metadata>
 <defs>
  <linearGradient id="linearGradient1240" x1="787.16" x2="843.9" y1="530.01" y2="485.82" gradientTransform="matrix(1.2648 0 0 1.2648 -726.02 -354.39)" gradientUnits="userSpaceOnUse">
   <stop stop-color="#99c1f1" offset="0"/>
   <stop stop-color="#99c1f1" stop-opacity="0" offset="1"/>
  </linearGradient>
  <linearGradient id="linearGradient4128-9" x1="1275.7" x2="281.12" y1="760" y2="760" gradientTransform="matrix(.28128 0 0 .28128 147.38 84.798)" gradientUnits="userSpaceOnUse">
   <stop stop-color="#1c71d8" offset="0"/>
   <stop stop-color="#33d17a" offset="1"/>
  </linearGradient>
 </defs>
 <g transform="matrix(1.9987 0 0 1.9987 -101.72 -15.407)">
  <path d="m498.19 60.321-100.98 79.855 40.574 15.176 8.5117 27.129 9.7715-20.291 39.723 14.855z" fill-opacity=".17708"/>
  <g transform="matrix(.73718 0 0 .73718 -179.2 -190.72)" stroke-width="1.3565">
   <path d="m918.92 335.21-136.98 108.33 133.73 50.015z" fill="#fff"/>
   <path d="m918.92 335.21-81.965 128.82 11.575 36.898-0.49954-32.726z" fill="#d3d3d3"/>
   <path d="m848.53 500.93 13.278-27.57-13.778-5.1564z" fill="#f6f5f4"/>
  </g>
 </g>
 <g transform="translate(0 -83.057)">
  <path d="m265.38 152.64v0.5254c0 18.165 14.726 32.891 32.891 32.891h16.828c4.1426 0 7.5007 3.3582 7.5007 7.5008v3.075c0 4.1426-3.3582 7.5008-7.5007 7.5008h-129.21c-18.165 0-32.891 14.726-32.891 32.891v0.52539c0 18.165 14.726 32.891 32.891 32.891h95.935c4.1426 0 7.5008 3.3582 7.5008 7.5007v1.8752c0 4.1426-3.3582 7.5008-7.5008 7.5008h-4.0504c-18.165 0-32.891 14.726-32.891 32.891v0.52539c0 18.165 14.726 32.891 32.891 32.891h140.8c18.165 0 32.891-14.726 32.891-32.891v-0.5254c0-18.165-14.726-32.891-32.891-32.891h-16.738c-4.1426 0-7.5008-3.3582-7.5008-7.5008v-1.8752c0-4.1425 3.3582-7.5007 7.5008-7.5007h74.558c18.165-2e-5 32.891-14.726 32.891-32.891v-0.52539c-2e-5 -18.165-14.726-32.891-32.891-32.891h-19.974c-4.9799 0-9.0169-4.037-9.0169-9.017v-0.0428c0-4.9799 4.037-9.0169 9.0169-9.0169h6.8472c18.165 0 32.891-14.726 32.891-32.891v-0.52538c-3e-5 -18.165-14.726-32.891-32.891-32.891h-165c-18.165 0-32.891 14.726-32.891 32.891z" fill="url(#linearGradient4128-9)" stop-color="#000000"/>
  <path d="m349.87 243.7c7.9573 30.548 5.2436 63.766-7.5661 92.617-11.571 26.061-31.177 48.371-55.128 63.844-23.951 15.474-52.128 24.147-80.606 25.596-19.136 0.97314-38.62-1.3111-56.408-8.4319-17.788-7.1208-33.812-19.278-43.987-35.513-10.175-16.235-14.109-36.644-9.0179-55.116 2.5457-9.2358 7.2873-17.886 13.872-24.845 6.5848-6.9584 15.017-12.193 24.238-14.79 9.0382-2.5449 18.779-2.5298 27.816 0.0203 9.0367 2.5501 17.343 7.625 23.754 14.486 6.4108 6.8606 10.909 15.486 12.89 24.664s1.4409 18.885-1.523 27.794c-4.8623 14.616-16.134 26.663-29.696 33.967-13.562 7.3041-29.258 10.101-44.654 9.6333-36.023-1.0944-71.005-20.598-90.875-50.666-19.87-30.068-24.096-69.896-10.979-103.46" fill="none" stroke="url(#linearGradient1240)" stroke-dasharray="7.58864, 30.3545" stroke-linecap="round" stroke-width="7.5886"/>
  <path d="m350.2 91.408-105.88 162.07h91.763l14.118 32.415 14.118-32.415h91.763z" enable-background="new" fill-opacity=".14343"/>
  <g transform="matrix(1.7647 0 0 1.6207 731.37 -198.89)" enable-background="new" stroke-width=".74788">
   <path d="m-216 176 60 100h-120z" fill="#f6f5f4"/>
   <path d="m-216 177.51v118.49l-8-20c2.0105-32.894 5.0995-65.685 8-98.495z" fill="#fff"/>
   <path d="m-216 177.51v118.49l8-20s-4.9696-65.696-8-98.495z" fill="#deddda"/>
  </g>
 </g>
</svg>
