<?xml version="1.0" encoding="UTF-8" standalone="no"?>
<svg
   width="512"
   height="350"
   version="1.1"
   viewBox="0 0 512 350"
   id="svg8459"
   sodipodi:docname="alldone.svg"
   inkscape:version="1.2.2 (b0a8486541, 2022-12-01)"
   xmlns:inkscape="http://www.inkscape.org/namespaces/inkscape"
   xmlns:sodipodi="http://sodipodi.sourceforge.net/DTD/sodipodi-0.dtd"
   xmlns="http://www.w3.org/2000/svg"
   xmlns:svg="http://www.w3.org/2000/svg"
   xmlns:rdf="http://www.w3.org/1999/02/22-rdf-syntax-ns#"
   xmlns:cc="http://creativecommons.org/ns#"
   xmlns:dc="http://purl.org/dc/elements/1.1/">
  <sodipodi:namedview
     id="namedview8461"
     pagecolor="#505050"
     bordercolor="#ffffff"
     borderopacity="1"
     inkscape:showpageshadow="0"
     inkscape:pageopacity="0"
     inkscape:pagecheckerboard="1"
     inkscape:deskcolor="#505050"
     showgrid="false"
     inkscape:current-layer="svg8459" />
  <metadata
     id="metadata8417">
    <rdf:RDF>
      <cc:Work
         rdf:about="">
        <dc:format>image/svg+xml</dc:format>
        <dc:type
           rdf:resource="http://purl.org/dc/dcmitype/StillImage" />
      </cc:Work>
    </rdf:RDF>
  </metadata>
  <defs
     id="defs8429">
    <linearGradient
       id="linearGradient1240"
       x1="787.16"
       x2="843.9"
       y1="530.01"
       y2="485.82"
       gradientTransform="matrix(1.2648 0 0 1.2648 -726.02 -354.39)"
       gradientUnits="userSpaceOnUse">
      <stop
         stop-color="#99c1f1"
         offset="0"
         id="stop8419" />
      <stop
         stop-color="#99c1f1"
         stop-opacity="0"
         offset="1"
         id="stop8421" />
    </linearGradient>
    <linearGradient
       id="linearGradient4128-9"
       x1="1275.7"
       x2="281.12"
       y1="760"
       y2="760"
       gradientTransform="matrix(.28128 0 0 .28128 147.38 84.798)"
       gradientUnits="userSpaceOnUse">
      <stop
         stop-color="#1c71d8"
         offset="0"
         id="stop8424" />
      <stop
         stop-color="#33d17a"
         offset="1"
         id="stop8426" />
    </linearGradient>
    <clipPath
       clipPathUnits="userSpaceOnUse"
       id="clipPath7926">
      <path
         sodipodi:type="star"
         style="opacity:1;fill:#f6d32d;fill-rule:evenodd;stroke-width:1.77665;stroke-dasharray:1.77665, 5.32995;-inkscape-stroke:none;stop-color:#000000"
         id="path7928"
         inkscape:flatsided="false"
         sodipodi:sides="4"
         sodipodi:cx="180"
         sodipodi:cy="120"
         sodipodi:r1="254.55844"
         sodipodi:r2="131.31154"
         sodipodi:arg1="0.78539816"
         sodipodi:arg2="1.5707963"
         inkscape:rounded="0.25"
         inkscape:randomized="0"
         d="M 360,300 C 327.03669,332.96332 226.61717,251.31154 180,251.31154 133.38283,251.31154 32.963318,332.96332 6.5753645e-7,300 -32.963316,267.03669 48.688461,166.61717 48.688461,120 48.688461,73.382834 -32.963316,-27.036682 -5.6554507e-7,-59.999999 32.963314,-92.963316 133.38283,-11.311539 180,-11.311539 c 46.61717,0 147.03668,-81.651777 180,-48.688462 C 392.96332,-27.036686 311.31154,73.382829 311.31154,120 c 0,46.61717 81.65178,147.03668 48.68846,180 z"
         transform="matrix(0.37377345,0.37377345,-0.37377345,0.37377345,348.49282,198.7872)" />
    </clipPath>
    <clipPath
       clipPathUnits="userSpaceOnUse"
       id="clipPath8842">
      <path
         sodipodi:type="star"
         style="opacity:1;fill:#f6d32d;fill-rule:evenodd;stroke-width:1.77665;stroke-dasharray:1.77665, 5.32995;-inkscape-stroke:none;stop-color:#000000"
         id="path8840"
         inkscape:flatsided="false"
         sodipodi:sides="4"
         sodipodi:cx="180"
         sodipodi:cy="120"
         sodipodi:r1="254.55844"
         sodipodi:r2="131.31154"
         sodipodi:arg1="0.78539816"
         sodipodi:arg2="1.5707963"
         inkscape:rounded="0.25"
         inkscape:randomized="0"
         d="M 360,300 C 327.03669,332.96332 226.61717,251.31154 180,251.31154 133.38283,251.31154 32.963318,332.96332 6.5753645e-7,300 -32.963316,267.03669 48.688461,166.61717 48.688461,120 48.688461,73.382834 -32.963316,-27.036682 -5.6554507e-7,-59.999999 32.963314,-92.963316 133.38283,-11.311539 180,-11.311539 c 46.61717,0 147.03668,-81.651777 180,-48.688462 C 392.96332,-27.036686 311.31154,73.382829 311.31154,120 c 0,46.61717 81.65178,147.03668 48.68846,180 z"
         transform="matrix(0.37377345,0.37377345,-0.37377345,0.37377345,348.49282,198.7872)" />
    </clipPath>
    <clipPath
       clipPathUnits="userSpaceOnUse"
       id="clipPath8846">
      <path
         sodipodi:type="star"
         style="opacity:1;fill:#f6d32d;fill-rule:evenodd;stroke-width:1.77665;stroke-dasharray:1.77665, 5.32995;-inkscape-stroke:none;stop-color:#000000"
         id="path8844"
         inkscape:flatsided="false"
         sodipodi:sides="4"
         sodipodi:cx="180"
         sodipodi:cy="120"
         sodipodi:r1="254.55844"
         sodipodi:r2="131.31154"
         sodipodi:arg1="0.78539816"
         sodipodi:arg2="1.5707963"
         inkscape:rounded="0.25"
         inkscape:randomized="0"
         d="M 360,300 C 327.03669,332.96332 226.61717,251.31154 180,251.31154 133.38283,251.31154 32.963318,332.96332 6.5753645e-7,300 -32.963316,267.03669 48.688461,166.61717 48.688461,120 48.688461,73.382834 -32.963316,-27.036682 -5.6554507e-7,-59.999999 32.963314,-92.963316 133.38283,-11.311539 180,-11.311539 c 46.61717,0 147.03668,-81.651777 180,-48.688462 C 392.96332,-27.036686 311.31154,73.382829 311.31154,120 c 0,46.61717 81.65178,147.03668 48.68846,180 z"
         transform="matrix(0.37377345,0.37377345,-0.37377345,0.37377345,348.49282,198.7872)" />
    </clipPath>
  </defs>
  <path
     id="rect209"
     style="display:inline;fill:#deddda;fill-opacity:0.544876;stroke:none;stroke-width:12.724;stroke-linecap:round;stop-color:#000000"
     d="m 12.796129,196.7263 a 38.172136,38.172136 0 0 0 38.172136,38.17213 H 184.55086 a 19.105949,19.105949 0 0 1 19.10595,19.10594 v 0.0491 a 19.01709,19.01709 0 0 1 -19.01709,19.01709 h -5.3299 a 38.433247,38.433247 0 0 0 -38.43325,38.43325 38.173031,38.173031 0 0 0 38.43325,37.91103 h 291.14501 a 38.5791,38.5791 0 0 0 38.57907,-38.57911 38.174306,38.174306 0 0 0 -38.57907,-37.76517 h -56.92024 a 19.01709,19.01709 0 0 1 -19.01712,-19.01709 v -0.13796 a 19.01709,19.01709 0 0 1 19.01712,-19.01709 h 56.92024 A 38.5791,38.5791 0 0 0 509.0339,196.31933 38.174306,38.174306 0 0 0 470.45483,158.55415 H 50.968265 a 38.172136,38.172136 0 0 0 -38.172136,38.17214 z"
     sodipodi:nodetypes="ccccccccccccc" />
  <g
     id="g7924"
     clip-path="url(#clipPath7926)"
     transform="matrix(0.6362023,0,0,0.6362023,-63.548148,-108.65078)"
     style="display:inline">
    <rect
       style="opacity:1;fill:#f6d32d;fill-opacity:1;fill-rule:evenodd;stroke-width:2.17595;stroke-dasharray:2.17595, 6.52782;-inkscape-stroke:none;stop-color:#000000"
       id="rect7714"
       width="360"
       height="360"
       x="180"
       y="120"
       rx="6.038106"
       ry="4.025404" />
    <ellipse
       style="opacity:1;fill:#f8e45c;fill-opacity:1;fill-rule:evenodd;stroke-width:1.77665;stroke-dasharray:1.77665, 5.32995;-inkscape-stroke:none;stop-color:#000000"
       id="path7982"
       cx="360"
       cy="242.02603"
       rx="180"
       ry="90" />
    <ellipse
       style="opacity:1;fill:#f8e45c;fill-opacity:0.552119;fill-rule:evenodd;stroke-width:2.04282;stroke-dasharray:2.04282, 6.12847;-inkscape-stroke:none;stop-color:#000000"
       id="ellipse8036"
       cx="286"
       cy="332.02603"
       rx="90"
       ry="237.97397" />
  </g>
  <g
     id="g8044"
     clip-path="url(#clipPath7926)"
     transform="matrix(0.42343895,0,0,0.42343895,222.88366,8.0937059)"
     style="display:inline">
    <rect
       style="opacity:1;fill:#f6d32d;fill-opacity:1;fill-rule:evenodd;stroke-width:2.17595;stroke-dasharray:2.17595, 6.52782;-inkscape-stroke:none;stop-color:#000000"
       id="rect8038"
       width="360"
       height="360"
       x="180"
       y="120"
       rx="6.038106"
       ry="4.025404" />
    <ellipse
       style="opacity:1;fill:#f8e45c;fill-opacity:1;fill-rule:evenodd;stroke-width:1.77665;stroke-dasharray:1.77665, 5.32995;-inkscape-stroke:none;stop-color:#000000"
       id="ellipse8040"
       cx="360"
       cy="242.02603"
       rx="180"
       ry="90" />
    <ellipse
       style="opacity:1;fill:#f8e45c;fill-opacity:0.552119;fill-rule:evenodd;stroke-width:2.04282;stroke-dasharray:2.04282, 6.12847;-inkscape-stroke:none;stop-color:#000000"
       id="ellipse8042"
       cx="286"
       cy="332.02603"
       rx="90"
       ry="237.97397" />
  </g>
  <g
     id="g8052"
     clip-path="url(#clipPath7926)"
     transform="matrix(0.35133242,0,0,0.35133242,132.44147,104.73396)"
     style="display:inline">
    <rect
       style="opacity:1;fill:#f6d32d;fill-opacity:1;fill-rule:evenodd;stroke-width:2.17595;stroke-dasharray:2.17595, 6.52782;-inkscape-stroke:none;stop-color:#000000"
       id="rect8046"
       width="360"
       height="360"
       x="180"
       y="120"
       rx="6.038106"
       ry="4.025404" />
    <ellipse
       style="opacity:1;fill:#f8e45c;fill-opacity:1;fill-rule:evenodd;stroke-width:1.77665;stroke-dasharray:1.77665, 5.32995;-inkscape-stroke:none;stop-color:#000000"
       id="ellipse8048"
       cx="360"
       cy="242.02603"
       rx="180"
       ry="90" />
    <ellipse
       style="opacity:1;fill:#f8e45c;fill-opacity:0.552119;fill-rule:evenodd;stroke-width:2.04282;stroke-dasharray:2.04282, 6.12847;-inkscape-stroke:none;stop-color:#000000"
       id="ellipse8050"
       cx="286"
       cy="332.02603"
       rx="90"
       ry="237.97397" />
  </g>
</svg>
